<mxfile host="app.diagrams.net" modified="2023-08-25T23:12:56.137Z" agent="Mozilla/5.0 (Windows NT 10.0; Win64; x64) AppleWebKit/537.36 (KHTML, like Gecko) Chrome/116.0.0.0 Safari/537.36" etag="87lfb8DRXZjJQbDXv3oN" version="21.6.9" type="github">
  <diagram name="Page-1" id="e7010aeb-78dc-98c9-4316-6516fd28bfe3">
    <mxGraphModel dx="1687" dy="1071" grid="1" gridSize="10" guides="1" tooltips="1" connect="1" arrows="1" fold="1" page="1" pageScale="1.5" pageWidth="1169" pageHeight="826" background="none" math="0" shadow="0">
      <root>
        <mxCell id="0" style=";html=1;" />
        <mxCell id="1" style=";html=1;" parent="0" />
        <mxCell id="BvUAwLo0dkDwFJGAxJ7x-75" value="" style="shape=table;startSize=0;container=1;collapsible=0;childLayout=tableLayout;fontSize=16;movable=1;resizable=1;rotatable=1;deletable=1;editable=1;locked=0;connectable=1;" vertex="1" parent="1">
          <mxGeometry x="480" y="180" width="640" height="580" as="geometry" />
        </mxCell>
        <mxCell id="BvUAwLo0dkDwFJGAxJ7x-76" style="shape=tableRow;horizontal=0;startSize=0;swimlaneHead=0;swimlaneBody=0;strokeColor=inherit;top=0;left=0;bottom=0;right=0;collapsible=0;dropTarget=0;fillColor=none;points=[[0,0.5],[1,0.5]];portConstraint=eastwest;fontSize=16;movable=0;resizable=0;rotatable=0;deletable=0;editable=0;locked=1;connectable=0;" vertex="1" parent="BvUAwLo0dkDwFJGAxJ7x-75">
          <mxGeometry width="640" height="59" as="geometry" />
        </mxCell>
        <mxCell id="BvUAwLo0dkDwFJGAxJ7x-77" value="Versão" style="shape=partialRectangle;html=1;whiteSpace=wrap;connectable=0;strokeColor=inherit;overflow=hidden;fillColor=none;top=0;left=0;bottom=0;right=0;pointerEvents=1;fontSize=16;align=left;verticalAlign=top;movable=0;resizable=0;rotatable=0;deletable=0;editable=0;locked=1;" vertex="1" parent="BvUAwLo0dkDwFJGAxJ7x-76">
          <mxGeometry width="200" height="59" as="geometry">
            <mxRectangle width="200" height="59" as="alternateBounds" />
          </mxGeometry>
        </mxCell>
        <mxCell id="BvUAwLo0dkDwFJGAxJ7x-78" value="1" style="shape=partialRectangle;html=1;whiteSpace=wrap;connectable=0;strokeColor=inherit;overflow=hidden;fillColor=none;top=0;left=0;bottom=0;right=0;pointerEvents=1;fontSize=16;align=left;verticalAlign=top;movable=0;resizable=0;rotatable=0;deletable=0;editable=0;locked=1;" vertex="1" parent="BvUAwLo0dkDwFJGAxJ7x-76">
          <mxGeometry x="200" width="440" height="59" as="geometry">
            <mxRectangle width="440" height="59" as="alternateBounds" />
          </mxGeometry>
        </mxCell>
        <mxCell id="BvUAwLo0dkDwFJGAxJ7x-79" style="shape=tableRow;horizontal=0;startSize=0;swimlaneHead=0;swimlaneBody=0;strokeColor=inherit;top=0;left=0;bottom=0;right=0;collapsible=0;dropTarget=0;fillColor=none;points=[[0,0.5],[1,0.5]];portConstraint=eastwest;fontSize=16;movable=0;resizable=0;rotatable=0;deletable=0;editable=0;locked=1;connectable=0;" vertex="1" parent="BvUAwLo0dkDwFJGAxJ7x-75">
          <mxGeometry y="59" width="640" height="59" as="geometry" />
        </mxCell>
        <mxCell id="BvUAwLo0dkDwFJGAxJ7x-80" value="Identificador" style="shape=partialRectangle;html=1;whiteSpace=wrap;connectable=0;strokeColor=inherit;overflow=hidden;fillColor=none;top=0;left=0;bottom=0;right=0;pointerEvents=1;fontSize=16;align=left;verticalAlign=top;movable=0;resizable=0;rotatable=0;deletable=0;editable=0;locked=1;" vertex="1" parent="BvUAwLo0dkDwFJGAxJ7x-79">
          <mxGeometry width="200" height="59" as="geometry">
            <mxRectangle width="200" height="59" as="alternateBounds" />
          </mxGeometry>
        </mxCell>
        <mxCell id="BvUAwLo0dkDwFJGAxJ7x-81" value="RF001" style="shape=partialRectangle;html=1;whiteSpace=wrap;connectable=0;strokeColor=inherit;overflow=hidden;fillColor=none;top=0;left=0;bottom=0;right=0;pointerEvents=1;fontSize=16;align=left;verticalAlign=top;movable=0;resizable=0;rotatable=0;deletable=0;editable=0;locked=1;" vertex="1" parent="BvUAwLo0dkDwFJGAxJ7x-79">
          <mxGeometry x="200" width="440" height="59" as="geometry">
            <mxRectangle width="440" height="59" as="alternateBounds" />
          </mxGeometry>
        </mxCell>
        <mxCell id="BvUAwLo0dkDwFJGAxJ7x-82" style="shape=tableRow;horizontal=0;startSize=0;swimlaneHead=0;swimlaneBody=0;strokeColor=inherit;top=0;left=0;bottom=0;right=0;collapsible=0;dropTarget=0;fillColor=none;points=[[0,0.5],[1,0.5]];portConstraint=eastwest;fontSize=16;movable=1;resizable=1;rotatable=1;deletable=1;editable=1;locked=0;connectable=1;" vertex="1" parent="BvUAwLo0dkDwFJGAxJ7x-75">
          <mxGeometry y="118" width="640" height="59" as="geometry" />
        </mxCell>
        <mxCell id="BvUAwLo0dkDwFJGAxJ7x-83" value="Nome" style="shape=partialRectangle;html=1;whiteSpace=wrap;connectable=0;strokeColor=inherit;overflow=hidden;fillColor=none;top=0;left=0;bottom=0;right=0;pointerEvents=1;fontSize=16;align=left;verticalAlign=top;movable=0;resizable=0;rotatable=0;deletable=0;editable=0;locked=1;" vertex="1" parent="BvUAwLo0dkDwFJGAxJ7x-82">
          <mxGeometry width="200" height="59" as="geometry">
            <mxRectangle width="200" height="59" as="alternateBounds" />
          </mxGeometry>
        </mxCell>
        <mxCell id="BvUAwLo0dkDwFJGAxJ7x-84" value="Cadastrar Cliente&amp;nbsp;" style="shape=partialRectangle;html=1;whiteSpace=wrap;connectable=1;strokeColor=inherit;overflow=hidden;fillColor=none;top=0;left=0;bottom=0;right=0;pointerEvents=1;fontSize=16;align=left;verticalAlign=top;movable=1;resizable=1;rotatable=1;deletable=1;editable=1;locked=0;" vertex="1" parent="BvUAwLo0dkDwFJGAxJ7x-82">
          <mxGeometry x="200" width="440" height="59" as="geometry">
            <mxRectangle width="440" height="59" as="alternateBounds" />
          </mxGeometry>
        </mxCell>
        <mxCell id="BvUAwLo0dkDwFJGAxJ7x-85" style="shape=tableRow;horizontal=0;startSize=0;swimlaneHead=0;swimlaneBody=0;strokeColor=inherit;top=0;left=0;bottom=0;right=0;collapsible=0;dropTarget=0;fillColor=none;points=[[0,0.5],[1,0.5]];portConstraint=eastwest;fontSize=16;movable=0;resizable=0;rotatable=0;deletable=0;editable=0;locked=1;connectable=0;" vertex="1" parent="BvUAwLo0dkDwFJGAxJ7x-75">
          <mxGeometry y="177" width="640" height="59" as="geometry" />
        </mxCell>
        <mxCell id="BvUAwLo0dkDwFJGAxJ7x-86" value="Módulo" style="shape=partialRectangle;html=1;whiteSpace=wrap;connectable=0;strokeColor=inherit;overflow=hidden;fillColor=none;top=0;left=0;bottom=0;right=0;pointerEvents=1;fontSize=16;align=left;verticalAlign=top;movable=0;resizable=0;rotatable=0;deletable=0;editable=0;locked=1;" vertex="1" parent="BvUAwLo0dkDwFJGAxJ7x-85">
          <mxGeometry width="200" height="59" as="geometry">
            <mxRectangle width="200" height="59" as="alternateBounds" />
          </mxGeometry>
        </mxCell>
        <mxCell id="BvUAwLo0dkDwFJGAxJ7x-87" value="&lt;span style=&quot;margin: 0px; padding: 0px; user-select: text; -webkit-user-drag: none; -webkit-tap-highlight-color: transparent;&quot; class=&quot;NormalTextRun SCXW47150359 BCX8&quot;&gt;Cadastrar&lt;/span&gt;&lt;span style=&quot;margin: 0px; padding: 0px; user-select: text; -webkit-user-drag: none; -webkit-tap-highlight-color: transparent; background-color: rgb(255, 255, 255); font-size: 11pt; line-height: 19.425px; font-family: Calibri, Calibri_EmbeddedFont, Calibri_MSFontService, sans-serif; font-variant-ligatures: none !important;&quot; class=&quot;TextRun SCXW47150359 BCX8&quot; lang=&quot;PT-BR&quot; data-contrast=&quot;auto&quot;&gt;&lt;/span&gt;&lt;span style=&quot;margin: 0px; padding: 0px; user-select: text; -webkit-user-drag: none; -webkit-tap-highlight-color: transparent; background-color: rgb(255, 255, 255); font-size: 11pt; line-height: 19.425px; font-family: Calibri, Calibri_EmbeddedFont, Calibri_MSFontService, sans-serif;&quot; data-ccp-props=&quot;{&amp;quot;201341983&amp;quot;:0,&amp;quot;335559740&amp;quot;:259}&quot; class=&quot;EOP SCXW47150359 BCX8&quot;&gt;&amp;nbsp;&lt;/span&gt;" style="shape=partialRectangle;html=1;whiteSpace=wrap;connectable=0;strokeColor=inherit;overflow=hidden;fillColor=none;top=0;left=0;bottom=0;right=0;pointerEvents=1;fontSize=16;align=left;verticalAlign=top;movable=0;resizable=0;rotatable=0;deletable=0;editable=0;locked=1;" vertex="1" parent="BvUAwLo0dkDwFJGAxJ7x-85">
          <mxGeometry x="200" width="440" height="59" as="geometry">
            <mxRectangle width="440" height="59" as="alternateBounds" />
          </mxGeometry>
        </mxCell>
        <mxCell id="BvUAwLo0dkDwFJGAxJ7x-88" style="shape=tableRow;horizontal=0;startSize=0;swimlaneHead=0;swimlaneBody=0;strokeColor=inherit;top=0;left=0;bottom=0;right=0;collapsible=0;dropTarget=0;fillColor=none;points=[[0,0.5],[1,0.5]];portConstraint=eastwest;fontSize=16;movable=1;resizable=1;rotatable=1;deletable=1;editable=1;locked=0;connectable=1;" vertex="1" parent="BvUAwLo0dkDwFJGAxJ7x-75">
          <mxGeometry y="236" width="640" height="58" as="geometry" />
        </mxCell>
        <mxCell id="BvUAwLo0dkDwFJGAxJ7x-89" value="Data da criação" style="shape=partialRectangle;html=1;whiteSpace=wrap;connectable=0;strokeColor=inherit;overflow=hidden;fillColor=none;top=0;left=0;bottom=0;right=0;pointerEvents=1;fontSize=16;align=left;verticalAlign=top;movable=0;resizable=0;rotatable=0;deletable=0;editable=0;locked=1;" vertex="1" parent="BvUAwLo0dkDwFJGAxJ7x-88">
          <mxGeometry width="200" height="58" as="geometry">
            <mxRectangle width="200" height="58" as="alternateBounds" />
          </mxGeometry>
        </mxCell>
        <mxCell id="BvUAwLo0dkDwFJGAxJ7x-90" value="25/08/2023" style="shape=partialRectangle;html=1;whiteSpace=wrap;connectable=1;strokeColor=inherit;overflow=hidden;fillColor=none;top=0;left=0;bottom=0;right=0;pointerEvents=1;fontSize=16;align=left;movable=1;resizable=1;rotatable=1;deletable=1;editable=1;locked=0;" vertex="1" parent="BvUAwLo0dkDwFJGAxJ7x-88">
          <mxGeometry x="200" width="440" height="58" as="geometry">
            <mxRectangle width="440" height="58" as="alternateBounds" />
          </mxGeometry>
        </mxCell>
        <mxCell id="BvUAwLo0dkDwFJGAxJ7x-91" value="" style="shape=tableRow;horizontal=0;startSize=0;swimlaneHead=0;swimlaneBody=0;strokeColor=inherit;top=0;left=0;bottom=0;right=0;collapsible=0;dropTarget=0;fillColor=none;points=[[0,0.5],[1,0.5]];portConstraint=eastwest;fontSize=16;movable=1;resizable=1;rotatable=1;deletable=1;editable=1;locked=0;connectable=1;" vertex="1" parent="BvUAwLo0dkDwFJGAxJ7x-75">
          <mxGeometry y="294" width="640" height="60" as="geometry" />
        </mxCell>
        <mxCell id="BvUAwLo0dkDwFJGAxJ7x-92" value="Data da última alteração" style="shape=partialRectangle;html=1;whiteSpace=wrap;connectable=1;strokeColor=inherit;overflow=hidden;fillColor=none;top=0;left=0;bottom=0;right=0;pointerEvents=1;fontSize=16;align=left;verticalAlign=top;movable=1;resizable=1;rotatable=1;deletable=1;editable=1;locked=0;" vertex="1" parent="BvUAwLo0dkDwFJGAxJ7x-91">
          <mxGeometry width="200" height="60" as="geometry">
            <mxRectangle width="200" height="60" as="alternateBounds" />
          </mxGeometry>
        </mxCell>
        <mxCell id="BvUAwLo0dkDwFJGAxJ7x-93" value="25/082023" style="shape=partialRectangle;html=1;whiteSpace=wrap;connectable=1;strokeColor=inherit;overflow=hidden;fillColor=none;top=0;left=0;bottom=0;right=0;pointerEvents=1;fontSize=16;movable=1;resizable=1;rotatable=1;deletable=1;editable=1;locked=0;align=left;" vertex="1" parent="BvUAwLo0dkDwFJGAxJ7x-91">
          <mxGeometry x="200" width="440" height="60" as="geometry">
            <mxRectangle width="440" height="60" as="alternateBounds" />
          </mxGeometry>
        </mxCell>
        <mxCell id="BvUAwLo0dkDwFJGAxJ7x-94" value="" style="shape=tableRow;horizontal=0;startSize=0;swimlaneHead=0;swimlaneBody=0;strokeColor=inherit;top=0;left=0;bottom=0;right=0;collapsible=0;dropTarget=0;fillColor=none;points=[[0,0.5],[1,0.5]];portConstraint=eastwest;fontSize=16;movable=1;resizable=1;rotatable=1;deletable=1;editable=1;locked=0;connectable=1;" vertex="1" parent="BvUAwLo0dkDwFJGAxJ7x-75">
          <mxGeometry y="354" width="640" height="59" as="geometry" />
        </mxCell>
        <mxCell id="BvUAwLo0dkDwFJGAxJ7x-95" value="Autor&amp;nbsp;" style="shape=partialRectangle;html=1;whiteSpace=wrap;connectable=0;strokeColor=inherit;overflow=hidden;fillColor=none;top=0;left=0;bottom=0;right=0;pointerEvents=1;fontSize=16;align=left;verticalAlign=top;movable=0;resizable=0;rotatable=0;deletable=0;editable=0;locked=1;" vertex="1" parent="BvUAwLo0dkDwFJGAxJ7x-94">
          <mxGeometry width="200" height="59" as="geometry">
            <mxRectangle width="200" height="59" as="alternateBounds" />
          </mxGeometry>
        </mxCell>
        <mxCell id="BvUAwLo0dkDwFJGAxJ7x-96" value="Luan Pacceli de moura" style="shape=partialRectangle;html=1;whiteSpace=wrap;connectable=1;strokeColor=inherit;overflow=hidden;fillColor=none;top=0;left=0;bottom=0;right=0;pointerEvents=1;fontSize=16;align=left;movable=1;resizable=1;rotatable=1;deletable=1;editable=1;locked=0;" vertex="1" parent="BvUAwLo0dkDwFJGAxJ7x-94">
          <mxGeometry x="200" width="440" height="59" as="geometry">
            <mxRectangle width="440" height="59" as="alternateBounds" />
          </mxGeometry>
        </mxCell>
        <mxCell id="BvUAwLo0dkDwFJGAxJ7x-97" value="" style="shape=tableRow;horizontal=0;startSize=0;swimlaneHead=0;swimlaneBody=0;strokeColor=inherit;top=0;left=0;bottom=0;right=0;collapsible=0;dropTarget=0;fillColor=none;points=[[0,0.5],[1,0.5]];portConstraint=eastwest;fontSize=16;movable=1;resizable=1;rotatable=1;deletable=1;editable=1;locked=0;connectable=1;" vertex="1" parent="BvUAwLo0dkDwFJGAxJ7x-75">
          <mxGeometry y="413" width="640" height="167" as="geometry" />
        </mxCell>
        <mxCell id="BvUAwLo0dkDwFJGAxJ7x-98" value="Descrição" style="shape=partialRectangle;html=1;whiteSpace=wrap;connectable=0;strokeColor=inherit;overflow=hidden;fillColor=none;top=0;left=0;bottom=0;right=0;pointerEvents=1;fontSize=16;align=left;verticalAlign=top;movable=0;resizable=0;rotatable=0;deletable=0;editable=0;locked=1;" vertex="1" parent="BvUAwLo0dkDwFJGAxJ7x-97">
          <mxGeometry width="200" height="167" as="geometry">
            <mxRectangle width="200" height="167" as="alternateBounds" />
          </mxGeometry>
        </mxCell>
        <mxCell id="BvUAwLo0dkDwFJGAxJ7x-99" value="O cadastro de associados deverá ser feito através do armazenamento de suas informações básicas:&lt;br&gt;&lt;br&gt;&amp;nbsp;- Nome do Cliente&lt;br&gt;&amp;nbsp;- Data de Nascimento&lt;br&gt;&amp;nbsp;- CPF&lt;br&gt;&amp;nbsp;- Endereço&lt;br&gt;-&amp;nbsp; &amp;nbsp;Contato&amp;nbsp;" style="shape=partialRectangle;html=1;whiteSpace=wrap;connectable=1;strokeColor=inherit;overflow=hidden;fillColor=none;top=0;left=0;bottom=0;right=0;pointerEvents=1;fontSize=16;align=left;verticalAlign=top;movable=1;resizable=1;rotatable=1;deletable=1;editable=1;locked=0;" vertex="1" parent="BvUAwLo0dkDwFJGAxJ7x-97">
          <mxGeometry x="200" width="440" height="167" as="geometry">
            <mxRectangle width="440" height="167" as="alternateBounds" />
          </mxGeometry>
        </mxCell>
      </root>
    </mxGraphModel>
  </diagram>
</mxfile>
